<?xml version="1.0" encoding="UTF-8"?>
<svg width="25px" height="25px" viewBox="0 0 25 25" version="1.1" xmlns="http://www.w3.org/2000/svg" xmlns:xlink="http://www.w3.org/1999/xlink">
    <!-- Generator: Sketch 46.2 (44496) - http://www.bohemiancoding.com/sketch -->
    <title>icon-instagram</title>
    <desc>Created with Sketch.</desc>
    <defs>
        <path d="M13.0160232,18.3571991 L13.0160232,18.3571991 C15.9580735,18.2781432 18.3270661,15.8602528 18.3270661,12.8994629 L18.3270661,5.49186041 C18.3270328,2.48135159 15.8778098,0.0321285907 12.8673343,0.0321285907 L5.45973182,0.0321285907 C2.449223,0.0321285907 0,2.48135159 0,5.49186041 L0,12.8994629 C0,15.8602528 2.36899264,18.2781432 5.31104292,18.3571991 L13.0160232,18.3571991 Z M16.4833639,12.8994629 C16.4833639,14.8965242 14.8643956,16.5154925 12.8673343,16.5154925 L5.45973182,16.5154925 C3.4626705,16.5154925 1.84370217,14.8965242 1.84370217,12.8994629 L1.84370217,5.49186041 C1.84370217,3.49476584 3.4626705,1.87583076 5.45973182,1.87583076 L12.8673343,1.87583076 C14.8643956,1.87583076 16.4833639,3.49476584 16.4833639,5.49186041 L16.4833639,12.8994629 Z" id="path-1"></path>
    </defs>
    <g id="Symbols" stroke="none" stroke-width="1" fill="none" fill-rule="evenodd">
        <g id="icon-instagram">
            <g id="instagram" transform="translate(3.000000, 4.000000)">
                <g id="Group-3">
                    <mask id="mask-2" fill="white">
                        <use xlink:href="#path-1"></use>
                    </mask>
                    <use id="Clip-2" fill="#000" xlink:href="#path-1"></use>
                </g>
                <path d="M9.16353305,12.0919909 C7.56392169,12.0919909 6.26720379,10.795273 6.26720379,9.19566164 C6.26720379,7.59605029 7.56395495,6.29933238 9.16353305,6.29933238 C10.7631444,6.29933238 12.0598623,7.59605029 12.0598623,9.19566164 C12.0598623,10.7952397 10.7631111,12.0919909 9.16353305,12.0919909 Z M9.16353305,4.45563021 C6.54987552,4.45563021 4.42350162,6.58200411 4.42350162,9.19562838 C4.42350162,11.8092527 6.54987552,13.9356598 9.16353305,13.9356598 C11.7771906,13.9356598 13.9035645,11.8092859 13.9035645,9.19562838 C13.9035645,6.58197085 11.7771906,4.45563021 9.16353305,4.45563021 L9.16353305,4.45563021 Z" id="Fill-4" fill="#000"></path>
                <path d="M13.9127441,3.35540891 C14.5400498,3.35540891 15.048553,3.86391204 15.048553,4.49121778 C15.048553,5.11852352 14.5400498,5.62702665 13.9127441,5.62702665 C13.2854383,5.62702665 12.7769352,5.11852352 12.7769352,4.49121778 C12.7769352,3.86391204 13.2854383,3.35540891 13.9127441,3.35540891" id="Fill-6" fill="#000"></path>
            </g>
        </g>
    </g>
</svg>