<?xml version="1.0" encoding="UTF-8"?>
<svg width="71px" height="50px" viewBox="0 0 71 50" version="1.1" xmlns="http://www.w3.org/2000/svg" xmlns:xlink="http://www.w3.org/1999/xlink">
    <!-- Generator: Sketch 46.2 (44496) - http://www.bohemiancoding.com/sketch -->
    <title>Group</title>
    <desc>Created with Sketch.</desc>
    <defs>
        <polygon id="path-1" points="0 49.874614 70.4012612 49.874614 70.4012612 0.107401947 0 0.107401947"></polygon>
    </defs>
    <g id="Symbols" stroke="none" stroke-width="1" fill="none" fill-rule="evenodd">
        <g id="Menu" transform="translate(-545.000000, -17.000000)">
            <g id="Group" transform="translate(545.000000, 17.000000)">
                <g id="Page-1">
                    <polygon id="Fill-1" fill="#000000" points="12.6810815 2.45404212 9.66487668 13.7576352 9.47074105 13.7576352 6.48610301 2.45404212 -7.89169235e-05 2.45404212 -7.89169235e-05 23.8043352 4.81727314 23.8043352 4.81727314 11.6322905 5.00798904 11.6322905 7.7371993 23.8043352 11.4299852 23.8043352 14.157091 11.6322905 14.3507005 11.6322905 14.3507005 23.8043352 19.1643698 23.8043352 19.1643698 2.45404212"></polygon>
                    <g id="Group-14" transform="translate(0.000000, 0.156485)">
                        <path d="M29.694781,8.96194036 C29.694781,7.5147849 28.9258671,6.93396995 27.9930691,6.93396995 C27.0618494,6.93396995 26.2926724,7.5147849 26.2926724,8.96194036 L26.2926724,17.0455861 C26.2926724,18.4634502 27.0618494,19.0429457 27.9930691,19.0429457 C28.9258671,19.0429457 29.694781,18.4634502 29.694781,17.0455861 L29.694781,8.96194036 Z M21.1557068,8.83553856 C21.1557068,3.77893881 24.462589,1.65385803 27.9930691,1.65385803 C31.5240753,1.65385803 34.8320096,3.77893881 34.8320096,8.80255271 L34.8320096,17.1115578 C34.8320096,22.2642124 31.5240753,24.2932384 27.9930691,24.2932384 C24.462589,24.2932384 21.1557068,22.3600033 21.1557068,17.1429604 L21.1557068,8.83553856 Z" id="Fill-2" fill="#000000"></path>
                        <polygon id="Fill-4" fill="#000000" points="45.4256333 23.6478503 40.0955843 23.6478503 35.0548973 2.29755722 40.3202345 2.29755722 42.9215993 14.9533065 43.1133674 14.9533065 45.6818502 2.29755722 50.7856707 2.29755722"></polygon>
                        <mask id="mask-2" fill="white">
                            <use xlink:href="#path-1"></use>
                        </mask>
                        <g id="Clip-7"></g>
                        <path d="M52.1025311,23.647692 L57.2387075,23.647692 L57.2387075,2.29739889 L52.1025311,2.29739889 L52.1025311,23.647692 Z M52.0717535,0.914104036 L57.2705374,0.914104036 L57.2705374,0.107665833 L52.0717535,0.107665833 L52.0717535,0.914104036 Z" id="Fill-6" fill="#000000" mask="url(#mask-2)"></path>
                        <polygon id="Fill-8" fill="#000000" mask="url(#mask-2)" points="59.518407 2.29750444 70.2729423 2.29750444 70.2729423 7.4182287 64.6551095 7.4182287 64.6551095 10.1225411 70.015147 10.1225411 70.015147 14.9532537 64.6551095 14.9532537 64.6551095 18.4946152 70.4010507 18.4946152 70.4010507 23.6477975 59.518407 23.6477975"></polygon>
                        <polygon id="Fill-9" fill="#000000" mask="url(#mask-2)" points="5.00793643 37.0577618 4.81722053 37.0577618 4.81722053 49.2303343 -0.000131528205 49.2303343 -0.000131528205 27.8795134 6.4860504 27.8795134 9.47068844 39.1825787 9.66482407 39.1825787 12.6810289 27.8795134 19.1643172 27.8795134 19.1643172 49.2303343 14.3506479 49.2303343 14.3506479 37.0577618 14.1570384 37.0577618 11.4301956 49.2303343 7.73714669 49.2303343"></polygon>
                        <path d="M29.694781,34.545559 C29.694781,33.0965564 28.9258671,32.5165331 27.9930691,32.5165331 C27.0618494,32.5165331 26.2926724,33.0965564 26.2926724,34.545559 L26.2926724,42.6294687 C26.2926724,44.0446938 27.0618494,44.6241894 27.9930691,44.6241894 C28.9258671,44.6241894 29.694781,44.0446938 29.694781,42.6294687 L29.694781,34.545559 Z M21.1557068,34.4175739 C21.1557068,29.361238 24.462589,27.2351017 27.9930691,27.2351017 C31.5240753,27.2351017 34.8320096,29.361238 34.8320096,34.3851158 L34.8320096,42.6928015 C34.8320096,47.8451922 31.5240753,49.8744821 27.9930691,49.8744821 C24.462589,49.8744821 21.1557068,47.9423026 21.1557068,42.7260513 L21.1557068,34.4175739 Z" id="Fill-10" fill="#000000" mask="url(#mask-2)"></path>
                        <polygon id="Fill-11" fill="#000000" mask="url(#mask-2)" points="45.4256333 49.2303343 40.0955843 49.2303343 35.0548973 27.8795134 40.3202345 27.8795134 42.9215993 40.5352627 43.1133674 40.5352627 45.6818502 27.8795134 50.7856707 27.8795134"></polygon>
                        <path d="M52.1025311,49.2302023 L57.2387075,49.2302023 L57.2387075,27.8793815 L52.1025311,27.8793815 L52.1025311,49.2302023 Z M52.0717535,26.4958227 L57.2705374,26.4958227 L57.2705374,25.6893845 L52.0717535,25.6893845 L52.0717535,26.4958227 Z" id="Fill-12" fill="#000000" mask="url(#mask-2)"></path>
                        <polygon id="Fill-13" fill="#000000" mask="url(#mask-2)" points="59.518407 27.8794606 70.2729423 27.8794606 70.2729423 32.9993932 64.6551095 32.9993932 64.6551095 35.7042334 70.015147 35.7042334 70.015147 40.5352099 64.6551095 40.5352099 64.6551095 44.0765714 70.4010507 44.0765714 70.4010507 49.2302815 59.518407 49.2302815"></polygon>
                    </g>
                </g>
            </g>
        </g>
    </g>
</svg>