<?xml version="1.0" encoding="UTF-8"?>
<svg width="25px" height="25px" viewBox="0 0 25 25" version="1.1" xmlns="http://www.w3.org/2000/svg" xmlns:xlink="http://www.w3.org/1999/xlink">
    <!-- Generator: Sketch 46.2 (44496) - http://www.bohemiancoding.com/sketch -->
    <title>icon-youtube</title>
    <desc>Created with Sketch.</desc>
    <defs>
        <polygon id="path-1" points="22.101551 0.280048027 0 0.280048027 0 7.98235323 0 15.6846584 22.101551 15.6846584 22.101551 0.280048027"></polygon>
    </defs>
    <g id="Symbols" stroke="none" stroke-width="1" fill="none" fill-rule="evenodd">
        <g id="icon-youtube">
            <g id="youtube-symbol" transform="translate(2.000000, 4.000000)">
                <mask id="mask-2" fill="white">
                    <use xlink:href="#path-1"></use>
                </mask>
                <g id="Clip-2"></g>
                <path d="M21.7194071,2.75855862 C21.44877,1.5821858 20.4874239,0.715519857 19.329873,0.586332732 C16.589566,0.280048027 13.8156076,0.278907302 11.0541972,0.280048027 C8.29250155,0.278907302 5.5176876,0.280048027 2.7770954,0.586332732 C1.62097045,0.715519857 0.659339143,1.5821858 0.389842824,2.75855862 C0.00456290064,4.43171725 0,6.25887377 0,7.98222431 C0,9.70557484 0,11.5335869 0.385565104,13.2067455 C0.655061423,14.3819776 1.61640755,15.2497843 2.77395841,15.3789714 C5.51426542,15.6844006 8.28793865,15.6863969 11.0496343,15.6844006 C13.8124706,15.6863969 16.5861438,15.6844006 19.3255953,15.3789714 C20.482861,15.2497843 21.4442071,14.3819776 21.7151293,13.2067455 C22.1004093,11.5335869 22.10155,9.70557484 22.10155,7.98222431 C22.10155,6.25887377 22.1049722,4.43171725 21.7194071,2.75855862 Z M8.19896209,11.4132404 L8.19896209,4.10432913 C10.5405857,5.32633095 12.867665,6.53949216 15.2249735,7.76947907 C12.8745093,8.98805872 10.5471448,10.1955163 8.19896209,11.4132404 Z" id="Fill-1" fill="#000" mask="url(#mask-2)"></path>
            </g>
        </g>
    </g>
</svg>